<svg width="53" height="53" viewBox="0 0 53 53" fill="none" xmlns="http://www.w3.org/2000/svg">
<g opacity="0.5">
<path d="M36.3804 11.9427L41.0577 16.6177L36.3804 11.9427ZM39.3882 7.82411L26.741 20.4712C26.0876 21.1238 25.6419 21.9552 25.4602 22.8607L24.292 28.7083L30.1397 27.5379C31.0451 27.3568 31.8754 26.9129 32.5291 26.2593L45.1762 13.6122C45.5563 13.2321 45.8577 12.7809 46.0634 12.2844C46.2691 11.7878 46.3749 11.2556 46.3749 10.7181C46.3749 10.1807 46.2691 9.64845 46.0634 9.1519C45.8577 8.65534 45.5563 8.20416 45.1762 7.82411C44.7962 7.44406 44.345 7.14259 43.8484 6.93691C43.3519 6.73123 42.8196 6.62537 42.2822 6.62537C41.7447 6.62537 41.2125 6.73123 40.7159 6.93691C40.2194 7.14259 39.7682 7.44406 39.3882 7.82411V7.82411Z" stroke="#67A491" stroke-width="5" stroke-linecap="round" stroke-linejoin="round"/>
<path d="M41.9585 33.125V39.75C41.9585 40.9213 41.4932 42.0447 40.6649 42.873C39.8366 43.7013 38.7132 44.1666 37.5418 44.1666H13.2502C12.0788 44.1666 10.9554 43.7013 10.1271 42.873C9.29882 42.0447 8.8335 40.9213 8.8335 39.75V15.4583C8.8335 14.2869 9.29882 13.1635 10.1271 12.3352C10.9554 11.507 12.0788 11.0416 13.2502 11.0416H19.8752" stroke="#67A491" stroke-width="5" stroke-linecap="round" stroke-linejoin="round"/>
</g>
</svg>
