<svg width="165" height="32" viewBox="0 0 165 32" fill="none" xmlns="http://www.w3.org/2000/svg">
<path d="M164.563 17.0903V26.6209H160.313V18.0219C160.339 17.1915 160.044 16.3832 159.489 15.7647C159.22 15.4657 158.887 15.2303 158.515 15.0754C158.143 14.9205 157.742 14.85 157.34 14.8689C156.914 14.8538 156.489 14.9312 156.096 15.0957C155.702 15.2602 155.349 15.508 155.061 15.822C154.464 16.4923 154.15 17.3685 154.187 18.2655V26.6209H149.937V11.329H154.187V13.4788C154.616 12.7252 155.259 12.1165 156.035 11.7303C156.903 11.3078 157.858 11.0966 158.823 11.1141C159.87 11.0896 160.903 11.3523 161.811 11.8736C162.674 12.3807 163.371 13.1276 163.818 14.0234C164.308 14.9714 164.563 16.0231 164.563 17.0903ZM117.612 21.4328H121.74C121.468 23.0177 120.586 24.4327 119.282 25.374C117.883 26.3894 116.187 26.9135 114.459 26.8645C112.958 26.9078 111.476 26.5119 110.196 25.7251C109.039 25.0048 108.103 23.9812 107.487 22.7657C106.885 21.5801 106.574 20.2687 106.577 18.9391C106.571 17.6205 106.855 16.3166 107.408 15.1198C107.97 13.9163 108.862 12.8973 109.981 12.1818C111.231 11.4078 112.682 11.019 114.151 11.0639C115.646 11.0177 117.122 11.4061 118.401 12.1818C119.484 12.8571 120.354 13.8262 120.909 14.9764C121.439 16.0961 121.714 17.3202 121.711 18.5593C121.711 19.0251 121.711 19.4837 121.647 19.928H110.662C110.769 20.8983 111.204 21.803 111.894 22.4934C112.594 23.1276 113.516 23.4598 114.459 23.4178C115.19 23.4482 115.915 23.2745 116.552 22.9162C116.82 22.7539 117.053 22.5387 117.235 22.2837C117.417 22.0287 117.546 21.7392 117.612 21.4328ZM110.726 17.2408H117.519C117.511 16.8176 117.416 16.4005 117.242 16.0148C117.067 15.6291 116.816 15.2828 116.504 14.9968C116.192 14.7108 115.825 14.491 115.426 14.3508C115.026 14.2106 114.602 14.1528 114.18 14.181C113.351 14.1288 112.532 14.3839 111.88 14.8976C111.235 15.5214 110.827 16.3497 110.726 17.2408ZM47.2012 5.38142H42.6222V26.6209H56.8535V22.6725H47.2012V5.38142ZM70.8842 13.8012C71.4708 14.6857 71.7734 15.7283 71.7513 16.7894V26.6209H67.5664V24.4711C67.2706 25.2143 66.7157 25.8252 66.0043 26.1909C65.1772 26.6095 64.265 26.8324 63.3381 26.8423C62.4112 26.8522 61.4944 26.649 60.6586 26.2483C59.9237 25.8752 59.3084 25.3033 58.8827 24.5976C58.457 23.892 58.2381 23.0809 58.2509 22.2569C58.2187 21.5899 58.3402 20.9244 58.6061 20.3119C58.872 19.6993 59.2751 19.1561 59.7844 18.7242C60.9344 17.8204 62.3721 17.3624 63.833 17.4343H66.4127C66.5647 17.4457 66.7173 17.4246 66.8605 17.3725C67.0037 17.3203 67.1342 17.2384 67.2433 17.132C67.3524 17.0256 67.4376 16.8972 67.4933 16.7554C67.549 16.6135 67.574 16.4615 67.5664 16.3093C67.5771 16.011 67.5178 15.7145 67.3934 15.4432C67.269 15.172 67.0828 14.9336 66.8498 14.7471C66.2716 14.3256 65.5649 14.1179 64.8506 14.1595C64.0999 14.1204 63.3639 14.3778 62.8012 14.8761C62.5595 15.0964 62.3642 15.3625 62.2264 15.659C62.0886 15.9554 62.0112 16.2764 61.9986 16.6031H58.215C58.2699 15.6005 58.5969 14.6319 59.1609 13.8012C59.7561 12.9371 60.5729 12.249 61.5256 11.8091C62.6508 11.3035 63.8755 11.0586 65.1086 11.0926C66.2892 11.0759 67.4589 11.3206 68.5338 11.8091C69.4844 12.2463 70.2972 12.9352 70.8842 13.8012ZM67.5664 20.1287H64.4923C63.9163 20.1008 63.3518 20.2958 62.9158 20.6733C62.7146 20.8522 62.5556 21.0736 62.4503 21.3214C62.3449 21.5692 62.2959 21.8373 62.3067 22.1064C62.3006 22.3412 62.3492 22.5741 62.4487 22.7868C62.5482 22.9995 62.6958 23.1861 62.88 23.3318C63.2884 23.6508 63.795 23.8179 64.3131 23.8047C64.7571 23.8285 65.2008 23.7535 65.6123 23.585C66.0237 23.4164 66.3925 23.1586 66.6922 22.8302C67.2864 22.1414 67.5964 21.2525 67.5593 20.3436L67.5664 20.1287ZM85.3591 11.845C84.4616 11.33 83.4414 11.0675 82.4068 11.0854C81.4419 11.0671 80.4865 11.2783 79.6193 11.7017C78.8424 12.0896 78.1969 12.6977 77.7634 13.4501V11.3004H73.5212V26.6209H77.7634V18.244C77.7295 17.3461 78.0455 16.4701 78.6448 15.8005C78.9332 15.4865 79.2863 15.2387 79.6797 15.0742C80.073 14.9097 80.4974 14.8323 80.9235 14.8475C81.3258 14.8285 81.7272 14.899 82.0989 15.0539C82.4707 15.2088 82.8034 15.4442 83.0732 15.7432C83.6109 16.3795 83.8851 17.1972 83.84 18.0291V26.628H88.0821V17.0903C88.1007 16.0062 87.8548 14.9338 87.3655 13.9661C86.9146 13.0808 86.218 12.3444 85.3591 11.845ZM135.857 13.8012C136.44 14.6872 136.742 15.7287 136.724 16.7894V26.6209H132.567V24.4711C132.274 25.2157 131.718 25.8273 131.005 26.1909C130.18 26.6099 129.269 26.8331 128.343 26.843C127.417 26.853 126.501 26.6494 125.667 26.2483C124.932 25.8793 124.316 25.3105 123.89 24.6073C123.462 23.8988 123.241 23.0846 123.252 22.2569C123.22 21.5899 123.341 20.9244 123.607 20.3119C123.873 19.6993 124.276 19.1561 124.785 18.7242C125.936 17.8216 127.373 17.3637 128.834 17.4343H131.414C131.564 17.4477 131.716 17.4288 131.859 17.3788C132.001 17.3288 132.132 17.2489 132.241 17.1444C132.35 17.0398 132.436 16.9132 132.492 16.7729C132.549 16.6325 132.574 16.4818 132.567 16.3308C132.577 16.0327 132.517 15.7365 132.393 15.4654C132.269 15.1944 132.083 14.9558 131.851 14.7686C131.27 14.346 130.561 14.1383 129.844 14.181C129.094 14.1419 128.358 14.3993 127.795 14.8976C127.31 15.3449 127.022 15.9656 126.992 16.6246H123.23C123.279 15.622 123.604 14.6525 124.169 13.8227C124.765 12.9566 125.585 12.2682 126.541 11.8306C127.655 11.3301 128.867 11.0852 130.088 11.1141C131.269 11.0964 132.439 11.3412 133.513 11.8306C134.458 12.2645 135.267 12.9453 135.857 13.8012ZM132.567 20.1287H129.472C128.896 20.1037 128.333 20.2984 127.895 20.6733C127.695 20.8531 127.537 21.0747 127.432 21.3223C127.327 21.5699 127.277 21.8375 127.286 22.1064C127.28 22.3419 127.329 22.5756 127.43 22.7885C127.531 23.0015 127.68 23.1876 127.867 23.3318C128.274 23.6529 128.781 23.8204 129.3 23.8047C129.745 23.8276 130.189 23.7522 130.602 23.5837C131.014 23.4153 131.384 23.158 131.686 22.8302C132.278 22.1404 132.585 21.2515 132.546 20.3436L132.567 20.1287ZM144.226 11.9023C143.545 12.3982 143.024 13.0834 142.729 13.8729V11.329H138.443V26.6209H142.693V19.1828C142.632 18.0719 142.893 16.9671 143.445 16.0011C143.69 15.625 144.029 15.3202 144.429 15.1176C144.829 14.915 145.276 14.8218 145.724 14.8475H148.246V11.329H146.512C145.699 11.2939 144.893 11.4929 144.19 11.9023H144.226ZM100.938 4.67917H105.151V26.6209H100.938V24.9512C100.485 25.5741 99.877 26.0681 99.1748 26.3844C98.4125 26.7318 97.5833 26.9079 96.7456 26.9003C95.3956 26.9336 94.0624 26.5965 92.8904 25.9258C91.8003 25.2761 90.9294 24.3154 90.3895 23.167C89.791 21.8646 89.4946 20.4438 89.5225 19.0108C89.4938 17.5777 89.7902 16.1567 90.3895 14.8546C90.9259 13.7065 91.7914 12.7438 92.8761 12.0886C94.0347 11.4242 95.353 11.0897 96.6883 11.1212C97.5438 11.1049 98.3925 11.2761 99.1748 11.6228C99.8625 11.9231 100.467 12.3853 100.938 12.97V4.67917ZM101.174 19.0108C101.232 17.885 100.872 16.7775 100.164 15.9008C99.8141 15.5318 99.393 15.2378 98.9261 15.0369C98.4592 14.836 97.9562 14.7324 97.4478 14.7324C96.9395 14.7324 96.4365 14.836 95.9696 15.0369C95.5026 15.2378 95.0815 15.5318 94.732 15.9008C94.0183 16.7751 93.6556 17.8837 93.7145 19.0108C93.6612 20.1308 94.0294 21.23 94.7463 22.0921C95.0922 22.4611 95.51 22.7553 95.9741 22.9563C96.4381 23.1574 96.9385 23.2612 97.4443 23.2612C97.95 23.2612 98.4504 23.1574 98.9144 22.9563C99.3785 22.7553 99.7963 22.4611 100.142 22.0921C100.868 21.2208 101.236 20.1071 101.174 18.975V19.0108ZM16.2521 17.7568C16.6688 17.7568 17.0761 17.6332 17.4225 17.4017C17.769 17.1702 18.039 16.8412 18.1985 16.4562C18.3579 16.0713 18.3996 15.6477 18.3183 15.239C18.2371 14.8303 18.0364 14.455 17.7418 14.1603C17.4471 13.8657 17.0718 13.665 16.6631 13.5838C16.2544 13.5025 15.8308 13.5442 15.4459 13.7036C15.0609 13.8631 14.7319 14.1331 14.5004 14.4796C14.2689 14.826 14.1453 15.2333 14.1453 15.65C14.1444 15.9269 14.1982 16.2013 14.3038 16.4574C14.4093 16.7134 14.5645 16.946 14.7603 17.1418C14.9561 17.3376 15.1887 17.4928 15.4447 17.5983C15.7008 17.7039 15.9751 17.7577 16.2521 17.7568ZM32.0169 13.6579V27.5238C32.0207 28.7034 31.5567 29.8364 30.7266 30.6746C29.8965 31.5127 28.768 31.9876 27.5884 31.9952C24.312 32.0587 21.0541 31.4893 17.9934 30.3184C17.9413 30.296 17.8962 30.2599 17.8629 30.2139C17.8297 30.168 17.8094 30.114 17.8042 30.0575C17.7991 30.001 17.8093 29.9441 17.8338 29.893C17.8582 29.8418 17.896 29.7982 17.9432 29.7667L19.9711 28.4267C20.0247 28.3922 20.0852 28.3698 20.1483 28.3611C20.2114 28.3525 20.2757 28.3577 20.3366 28.3765C22.6883 29.0799 25.134 29.4183 27.5884 29.3797C28.0781 29.3759 28.5465 29.1787 28.8915 28.8311C29.2364 28.4834 29.43 28.0135 29.43 27.5238V13.6579C29.4257 13.3806 29.3591 13.1078 29.235 12.8597C29.111 12.6116 28.9327 12.3946 28.7134 12.2248L17.198 3.0167C16.8642 2.76612 16.4581 2.63065 16.0407 2.63065C15.6233 2.63065 15.2172 2.76612 14.8834 3.0167L3.31779 12.1818C3.10001 12.353 2.92282 12.5703 2.79893 12.8181C2.67504 13.0658 2.60752 13.338 2.60121 13.6149V27.5238C2.60121 28.016 2.79675 28.4881 3.14481 28.8361C3.49286 29.1842 3.96493 29.3797 4.45716 29.3797C7.55724 29.45 10.6384 28.8791 13.5076 27.7029C11.79 26.3297 10.4072 24.584 9.46373 22.5977C8.52024 20.6114 8.04076 18.4365 8.06156 16.2376C8.06156 11.1427 12.0816 8.47705 16.0586 8.47705C20.0356 8.47705 23.9911 11.1427 23.9911 16.2376C23.9961 17.9895 23.6929 19.7286 23.0954 21.3755C22.2684 23.6391 20.8773 25.6542 19.0539 27.23C17.0916 28.886 14.8152 30.129 12.361 30.8845C9.80235 31.6375 7.14566 32.0046 4.47865 31.9737C3.29637 31.9719 2.16262 31.5034 1.32394 30.67C0.485258 29.8367 0.009466 28.706 2.42765e-05 27.5238V13.6579C-0.00219791 12.9846 0.148165 12.3195 0.439823 11.7126C0.73148 11.1057 1.15685 10.5728 1.68399 10.1538L13.2353 0.967282C14.0293 0.340752 15.0113 0 16.0228 0C17.0342 0 18.0162 0.340752 18.8103 0.967282L30.3615 10.1538C30.8908 10.5714 31.3181 11.1038 31.6111 11.7109C31.9041 12.318 32.0551 12.9838 32.0527 13.6579H32.0169ZM16.0228 26.3127C17.6853 25.2242 19.0471 23.7347 19.9826 21.9815C20.9181 20.2282 21.3971 18.2677 21.3756 16.2806C21.4052 15.5585 21.2754 14.8388 20.9956 14.1725C20.7157 13.5062 20.2925 12.9097 19.7562 12.4254C18.7182 11.5659 17.4059 11.1081 16.0586 11.1356C13.4646 11.1356 10.6771 12.7407 10.6771 16.2806C10.6541 18.2672 11.1318 20.2275 12.0661 21.9808C13.0003 23.7341 14.3611 25.2239 16.0228 26.3127Z" fill="white"/>
</svg>
