<svg width="24" height="25" viewBox="0 0 24 25" fill="none" xmlns="http://www.w3.org/2000/svg">
<path d="M12 2.40002C6.48 2.40002 2 6.88002 2 12.4C2 17.92 6.48 22.4 12 22.4C17.52 22.4 22 17.92 22 12.4C22 6.88002 17.52 2.40002 12 2.40002ZM7.07 18.68C7.5 17.78 10.12 16.9 12 16.9C13.88 16.9 16.51 17.78 16.93 18.68C15.57 19.76 13.86 20.4 12 20.4C10.14 20.4 8.43 19.76 7.07 18.68ZM18.36 17.23C16.93 15.49 13.46 14.9 12 14.9C10.54 14.9 7.07 15.49 5.64 17.23C4.62 15.89 4 14.22 4 12.4C4 7.99002 7.59 4.40002 12 4.40002C16.41 4.40002 20 7.99002 20 12.4C20 14.22 19.38 15.89 18.36 17.23ZM12 6.40002C10.06 6.40002 8.5 7.96002 8.5 9.90002C8.5 11.84 10.06 13.4 12 13.4C13.94 13.4 15.5 11.84 15.5 9.90002C15.5 7.96002 13.94 6.40002 12 6.40002ZM12 11.4C11.17 11.4 10.5 10.73 10.5 9.90002C10.5 9.07002 11.17 8.40002 12 8.40002C12.83 8.40002 13.5 9.07002 13.5 9.90002C13.5 10.73 12.83 11.4 12 11.4Z" fill="#7E7E86"/>
</svg>
