<svg width="14" height="18" viewBox="0 0 14 18" fill="none" xmlns="http://www.w3.org/2000/svg">
<path d="M4 14C4 14.55 3.55 15 3 15C2.45 15 2 14.55 2 14C2 13.45 2.45 13 3 13C3.55 13 4 13.45 4 14ZM7 13C6.45 13 6 13.45 6 14C6 14.55 6.45 15 7 15C7.55 15 8 14.55 8 14C8 13.45 7.55 13 7 13ZM11 13C10.45 13 10 13.45 10 14C10 14.55 10.45 15 11 15C11.55 15 12 14.55 12 14C12 13.45 11.55 13 11 13ZM14 9V11H0V9C0 5.47 2.61 2.57 6 2.08V0H8V2.08C11.39 2.57 14 5.47 14 9ZM12 9C12 6.24 9.76 4 7 4C4.24 4 2 6.24 2 9H12ZM3 16C2.45 16 2 16.45 2 17C2 17.55 2.45 18 3 18C3.55 18 4 17.55 4 17C4 16.45 3.55 16 3 16ZM7 16C6.45 16 6 16.45 6 17C6 17.55 6.45 18 7 18C7.55 18 8 17.55 8 17C8 16.45 7.55 16 7 16ZM11 16C10.45 16 10 16.45 10 17C10 17.55 10.45 18 11 18C11.55 18 12 17.55 12 17C12 16.45 11.55 16 11 16Z" fill="#5E5E64"/>
</svg>
