<svg width="32" height="32" viewBox="0 0 32 32" fill="none" xmlns="http://www.w3.org/2000/svg">
<g clip-path="url(#clip0)">
<path d="M28.3246 26.4132C27.7818 25.8704 26.9643 25.8704 26.4215 26.4132C25.8787 26.956 25.8787 27.7734 26.4215 28.3162L29.554 31.4488C30.3846 32.2008 31.189 31.7234 31.4571 31.4488C31.9999 30.906 31.9999 30.0885 31.4571 29.5457L28.3246 26.4132Z" fill="#3B7E62"/>
<path d="M23.289 23.418C25.5583 21.2664 28.645 22.2408 29.6848 23.418C30.1949 23.9935 31.0451 23.9608 31.5879 23.418C32.1307 22.8752 32.1438 22.0446 31.5879 21.5149C28.4357 18.5001 25.0612 19.5268 24.368 19.7492C24.2961 17.8265 23.4198 15.5572 22.0399 13.2748L27.7098 11.4437C28.2592 11.3587 29.2271 10.417 28.2526 9.26598L21.4513 2.46465C21.1766 2.18998 20.7058 2.05919 20.2938 2.12458L12.7992 3.47177C4.95154 -1.95621 1.98903 0.424252 1.17811 1.16978C-1.25468 3.60257 0.347559 8.37004 3.54549 12.8694L2.19831 20.3574C2.06097 20.7628 2.19831 21.1749 2.53837 21.5149L9.3397 28.3162C9.76479 28.7217 11.1643 29.173 11.7202 27.7735L13.5121 22.2408C15.7617 23.5946 17.9198 24.4251 19.7117 24.5559C19.0054 26.9691 19.6071 29.6765 21.5167 31.5861C22.2688 32.3382 23.1516 31.8608 23.2824 31.6515C23.8252 31.1087 23.8252 30.2912 23.2824 29.7485C21.5167 27.9762 21.5167 25.1837 23.289 23.418ZM20.091 4.91051L24.9239 9.67145L20.6011 11.1102C19.7117 9.8284 17.2397 7.03593 15.6244 5.70182L20.091 4.91051ZM9.74517 24.9156L4.9123 20.0827L5.75592 15.6553C6.4753 16.682 9.80402 19.723 11.1643 20.6582L9.74517 24.9156ZM21.4513 21.443C19.8491 23.0452 13.6298 19.88 9.13697 15.3872C3.55857 9.80878 1.7863 4.36772 3.08117 3.07285C4.68341 1.47061 10.7915 4.52467 15.3955 9.12865C20.9739 14.707 22.7396 20.1547 21.4513 21.443Z" fill="#3B7E62"/>
<path d="M8.2541 9.60606C9.04147 9.60606 9.67976 8.96777 9.67976 8.18039C9.67976 7.39302 9.04147 6.75473 8.2541 6.75473C7.46672 6.75473 6.82843 7.39302 6.82843 8.18039C6.82843 8.96777 7.46672 9.60606 8.2541 9.60606Z" fill="#3B7E62"/>
<path d="M12.2957 13.6476C13.0831 13.6476 13.7214 13.0093 13.7214 12.2219C13.7214 11.4346 13.0831 10.7963 12.2957 10.7963C11.5083 10.7963 10.8701 11.4346 10.8701 12.2219C10.8701 13.0093 11.5083 13.6476 12.2957 13.6476Z" fill="#3B7E62"/>
<path d="M16.3437 17.6957C17.1311 17.6957 17.7694 17.0574 17.7694 16.2701C17.7694 15.4827 17.1311 14.8444 16.3437 14.8444C15.5564 14.8444 14.9181 15.4827 14.9181 16.2701C14.9181 17.0574 15.5564 17.6957 16.3437 17.6957Z" fill="#3B7E62"/>
</g>
<defs>
<clipPath id="clip0">
<rect width="32" height="32" fill="white"/>
</clipPath>
</defs>
</svg>
