<svg width="32" height="32" viewBox="0 0 32 32" fill="none" xmlns="http://www.w3.org/2000/svg">
<path d="M26.3938 18.825C26.0157 18.6625 25.6032 18.5719 25.1688 18.5656H25.1282C23.3532 18.5656 21.9095 20.0094 21.9095 21.7844C21.9095 22.5156 22.1563 23.1906 22.5688 23.7344C20.8657 25.4594 18.5032 26.5281 15.8938 26.5281C13.4845 26.5281 11.2876 25.6156 9.62197 24.1188C9.92197 23.6281 10.0938 23.0563 10.0938 22.4406C10.0938 20.6656 8.6501 19.2219 6.8751 19.2219C6.82822 19.2219 6.78447 19.2219 6.74072 19.225C6.5876 18.5563 6.50635 17.8563 6.50635 17.1406C6.50635 13.125 9.04385 9.6875 12.597 8.34999C12.9907 9.68437 14.2251 10.6594 15.6845 10.6594C17.1907 10.6594 18.4595 9.61874 18.8095 8.21562C21.9876 9.26249 24.4251 11.9594 25.0938 15.2906C25.0938 15.3656 25.1095 15.4375 25.1345 15.5031C25.2251 15.7438 25.4595 15.9156 25.7345 15.9156C26.0782 15.9156 26.3563 15.6469 26.372 15.3125V15.2813C26.372 15.1906 26.3532 15.1031 26.3157 15.025C26.1751 14.3313 25.9657 13.6562 25.6876 13C25.1532 11.7344 24.3845 10.5969 23.4095 9.61874C22.4313 8.64062 21.2938 7.87499 20.0282 7.34062C19.6438 7.17812 19.2563 7.04062 18.8595 6.92499C18.6126 5.39374 17.2813 4.22186 15.6813 4.22186C14.0345 4.22186 12.672 5.46561 12.4845 7.06249C12.2376 7.14687 11.9907 7.24062 11.747 7.34062C10.4813 7.87499 9.34385 8.64374 8.36572 9.61874C7.3876 10.5969 6.62197 11.7344 6.0876 13C5.53135 14.3125 5.2501 15.7063 5.2501 17.1406C5.2501 17.95 5.34072 18.7438 5.51572 19.5188C4.4126 20.0313 3.64697 21.1469 3.64697 22.4406C3.64697 24.2156 5.09072 25.6594 6.86572 25.6594C7.5751 25.6594 8.22822 25.4281 8.7626 25.0406C9.64697 25.8375 10.647 26.475 11.7438 26.9406C13.0563 27.4969 14.4501 27.7781 15.8845 27.7781C17.3188 27.7781 18.7126 27.4969 20.0251 26.9406C21.2907 26.4063 22.4282 25.6375 23.4063 24.6625C23.4376 24.6313 23.4688 24.5969 23.5001 24.5656C23.9751 24.8438 24.5313 25.0063 25.122 25.0063C26.897 25.0063 28.3407 23.5625 28.3407 21.7875C28.347 20.4594 27.5438 19.3188 26.3938 18.825V18.825ZM15.6845 5.47186C16.4782 5.47186 17.1626 5.94374 17.4751 6.62187C17.5907 6.87187 17.6563 7.14999 17.6563 7.44374C17.6563 7.60624 17.6376 7.76249 17.6001 7.91249C17.3907 8.77187 16.6126 9.41562 15.6876 9.41562C14.7907 9.41562 14.0345 8.81562 13.797 7.99374C13.747 7.81874 13.7188 7.63437 13.7188 7.44374C13.7188 7.18124 13.772 6.93124 13.8657 6.69999C14.1532 5.97811 14.8595 5.47186 15.6845 5.47186V5.47186ZM6.87197 24.4125C5.78447 24.4125 4.90322 23.5281 4.90322 22.4438C4.90322 21.7188 5.29697 21.0875 5.87822 20.7438C6.16885 20.5719 6.50947 20.475 6.87197 20.475C6.95635 20.475 7.0376 20.4813 7.11885 20.4906C8.0876 20.6125 8.84072 21.4438 8.84072 22.4438C8.84072 22.7 8.79072 22.9469 8.7001 23.1719C8.5376 23.5781 8.24697 23.9156 7.8751 24.1375C7.58135 24.3094 7.2376 24.4125 6.87197 24.4125V24.4125ZM25.1282 23.7563C24.8501 23.7563 24.5876 23.7 24.347 23.5938C23.9501 23.4219 23.622 23.125 23.4126 22.75C23.2501 22.4656 23.1595 22.1344 23.1595 21.7844C23.1595 20.7813 23.9157 19.95 24.8876 19.8313C24.9688 19.8219 25.0501 19.8156 25.1313 19.8156C25.4907 19.8156 25.8282 19.9125 26.1188 20.0813C26.7063 20.4219 27.1001 21.0594 27.1001 21.7844C27.097 22.8719 26.2157 23.7563 25.1282 23.7563V23.7563Z" fill="#3B7E62"/>
</svg>
