<svg width="32" height="28" viewBox="0 0 32 28" fill="none" xmlns="http://www.w3.org/2000/svg">
<path d="M16 25.8462C11.4597 25.8462 7.49414 23.3883 5.36122 19.7305H3.95691C6.20552 24.0936 10.7544 27.0769 16 27.0769C23.0621 27.0769 28.8615 21.6689 29.4831 14.7692H32L28.9231 11.0769L25.8461 14.7692H28.2474C27.6295 20.9883 22.3815 25.8462 16 25.8462Z" fill="#3B7E62"/>
<path d="M16 0C9.36369 0 3.84246 4.77538 2.68431 11.0769H0L3.07692 14.7692L6.15385 11.0769H3.93846C5.07938 5.45969 10.0455 1.23077 16 1.23077C20.0197 1.23077 23.5889 3.15692 25.8351 6.13785H27.3391C24.9206 2.44185 20.7458 0 16 0Z" fill="#3B7E62"/>
</svg>
