<svg width="20" height="21" viewBox="0 0 20 21" fill="none" xmlns="http://www.w3.org/2000/svg">
<path d="M9.92722 5.69745C7.08952 5.69745 4.80061 7.98686 4.80061 10.8252C4.80061 13.6635 7.08952 15.9529 9.92722 15.9529C12.7649 15.9529 15.0538 13.6635 15.0538 10.8252C15.0538 7.98686 12.7649 5.69745 9.92722 5.69745ZM9.92722 14.1589C8.09342 14.1589 6.59426 12.6639 6.59426 10.8252C6.59426 8.98653 8.08896 7.49149 9.92722 7.49149C11.7655 7.49149 13.2602 8.98653 13.2602 10.8252C13.2602 12.6639 11.761 14.1589 9.92722 14.1589V14.1589ZM16.4593 5.4877C16.4593 6.15265 15.9239 6.68373 15.2635 6.68373C14.5987 6.68373 14.0678 6.14819 14.0678 5.4877C14.0678 4.8272 14.6032 4.29167 15.2635 4.29167C15.9239 4.29167 16.4593 4.8272 16.4593 5.4877ZM19.8547 6.70158C19.7789 5.09943 19.413 3.68027 18.2395 2.51101C17.0706 1.34176 15.6517 0.975815 14.0499 0.895484C12.3991 0.801766 7.45092 0.801766 5.80006 0.895484C4.20273 0.971352 2.78388 1.3373 1.61043 2.50655C0.436979 3.6758 0.0755734 5.09497 -0.00473893 6.69711C-0.0984366 8.34835 -0.0984366 13.2976 -0.00473893 14.9488C0.0711116 16.551 0.436979 17.9701 1.61043 19.1394C2.78388 20.3086 4.19827 20.6746 5.80006 20.7549C7.45092 20.8486 12.3991 20.8486 14.0499 20.7549C15.6517 20.679 17.0706 20.3131 18.2395 19.1394C19.4085 17.9701 19.7744 16.551 19.8547 14.9488C19.9484 13.2976 19.9484 8.35281 19.8547 6.70158V6.70158ZM17.722 16.7205C17.374 17.5952 16.7002 18.2691 15.8213 18.6217C14.505 19.1438 11.3818 19.0233 9.92722 19.0233C8.47267 19.0233 5.34495 19.1394 4.03319 18.6217C3.15867 18.2736 2.48494 17.5997 2.13246 16.7205C1.61043 15.404 1.7309 12.2801 1.7309 10.8252C1.7309 9.37033 1.61489 6.24191 2.13246 4.92985C2.48048 4.05514 3.15421 3.38126 4.03319 3.0287C5.34942 2.50655 8.47267 2.62705 9.92722 2.62705C11.3818 2.62705 14.5095 2.51101 15.8213 3.0287C16.6958 3.3768 17.3695 4.05068 17.722 4.92985C18.244 6.24637 18.1235 9.37033 18.1235 10.8252C18.1235 12.2801 18.244 15.4085 17.722 16.7205Z" fill="black"/>
</svg>
