<svg width="27" height="22" viewBox="0 0 27 22" fill="none" xmlns="http://www.w3.org/2000/svg">
<path d="M11 0.333252V2.17325C9.89335 1.73325 8.70668 1.50659 7.52001 1.50659C5.13335 1.50659 2.74668 2.41325 0.920013 4.23992L5.36001 8.67992H6.84001V10.1599C7.98668 11.3066 9.48001 11.9066 10.9867 11.9733V14.9999H7.00001V18.9999C7.00001 20.4666 8.20001 21.6666 9.66668 21.6666H23C25.2133 21.6666 27 19.8799 27 17.6666V0.333252H11ZM9.52001 8.87992V6.01325H6.48001L5.09335 4.62658C5.85335 4.33325 6.68001 4.17325 7.52001 4.17325C9.30668 4.17325 10.9733 4.86659 12.24 6.11992L14.12 7.99992L13.8533 8.26658C13.1733 8.94658 12.2667 9.33325 11.2933 9.33325C10.6667 9.33325 10.0533 9.17325 9.52001 8.87992ZM24.3333 17.6666C24.3333 18.3999 23.7333 18.9999 23 18.9999C22.2667 18.9999 21.6667 18.3999 21.6667 17.6666V14.9999H13.6667V11.5466C14.4267 11.2399 15.1333 10.7866 15.7467 10.1733L16.0133 9.90659L19.7867 13.6666H21.6667V11.7866L13.6667 3.82658V2.99992H24.3333V17.6666Z" fill="#3B7E62"/>
</svg>
