<svg width="20" height="21" viewBox="0 0 20 21" fill="none" xmlns="http://www.w3.org/2000/svg">
<path d="M4.47679 20.0098H0.330357V6.65679H4.47679V20.0098ZM2.40134 4.83532C1.07545 4.83532 0 3.73708 0 2.41116C9.49017e-09 1.77427 0.252998 1.16347 0.703336 0.713117C1.15367 0.262769 1.76446 0.00976562 2.40134 0.00976562C3.03821 0.00976562 3.649 0.262769 4.09934 0.713117C4.54968 1.16347 4.80268 1.77427 4.80268 2.41116C4.80268 3.73708 3.72679 4.83532 2.40134 4.83532ZM19.9955 20.0098H15.858V13.5096C15.858 11.9605 15.8268 9.97383 13.7022 9.97383C11.5464 9.97383 11.2161 11.6569 11.2161 13.398V20.0098H7.07411V6.65679H11.0509V8.47826H11.1089C11.6625 7.42913 13.0147 6.32196 15.0321 6.32196C19.2286 6.32196 20 9.08541 20 12.6748V20.0098H19.9955Z" fill="black"/>
</svg>
