<svg width="144" height="28" viewBox="0 0 144 28" fill="none" xmlns="http://www.w3.org/2000/svg">
<path d="M143.992 14.9541V23.2933H140.274V15.7692C140.297 15.0426 140.039 14.3353 139.553 13.7941C139.317 13.5325 139.026 13.3265 138.701 13.191C138.375 13.0554 138.024 12.9937 137.672 13.0103C137.299 12.9971 136.928 13.0648 136.584 13.2088C136.24 13.3527 135.931 13.5695 135.678 13.8443C135.156 14.4308 134.881 15.1974 134.913 15.9823V23.2933H131.195V9.91291H134.913V11.7939C135.289 11.1346 135.852 10.602 136.531 10.264C137.29 9.89429 138.126 9.70951 138.97 9.72481C139.886 9.70343 140.79 9.93328 141.585 10.3894C142.34 10.8332 142.95 11.4866 143.34 12.2705C143.769 13.1 143.993 14.0202 143.992 14.9541ZM102.911 18.7537H106.522C106.285 20.1405 105.513 21.3786 104.372 22.2023C103.148 23.0908 101.664 23.5493 100.152 23.5064C98.8379 23.5444 97.5414 23.1979 96.4213 22.5095C95.4095 21.8792 94.5897 20.9836 94.0512 19.92C93.5247 18.8826 93.2518 17.7351 93.2549 16.5717C93.2496 15.4179 93.4979 14.277 93.9823 13.2298C94.4736 12.1767 95.2543 11.2851 96.2332 10.659C97.3272 9.98179 98.5964 9.6416 99.8824 9.68092C101.19 9.64053 102.482 9.9803 103.601 10.659C104.549 11.2499 105.31 12.0979 105.795 13.1044C106.26 14.0841 106.499 15.1552 106.497 16.2394C106.497 16.647 106.497 17.0483 106.441 17.437H96.8289C96.9231 18.286 97.3035 19.0776 97.9073 19.6817C98.5197 20.2366 99.3264 20.5273 100.152 20.4905C100.791 20.5172 101.425 20.3652 101.983 20.0516C102.218 19.9097 102.421 19.7214 102.581 19.4982C102.74 19.2751 102.852 19.0218 102.911 18.7537ZM96.8853 15.0857H102.829C102.822 14.7154 102.739 14.3504 102.586 14.0129C102.434 13.6754 102.214 13.3724 101.941 13.1222C101.668 12.8719 101.347 12.6796 100.997 12.557C100.648 12.4343 100.277 12.3837 99.9075 12.4084C99.1823 12.3627 98.4657 12.5859 97.8948 13.0354C97.3309 13.5812 96.974 14.3059 96.8853 15.0857ZM41.3011 4.70874H37.2945V23.2933H49.7468V19.8384H41.3011V4.70874ZM62.0237 12.0761C62.537 12.85 62.8017 13.7622 62.7823 14.6907V23.2933H59.1206V21.4122C58.8618 22.0625 58.3762 22.597 57.7537 22.9171C57.0301 23.2833 56.2319 23.4783 55.4208 23.487C54.6098 23.4957 53.8076 23.3179 53.0763 22.9672C52.4333 22.6408 51.8949 22.1404 51.5224 21.5229C51.1499 20.9055 50.9584 20.1958 50.9695 19.4748C50.9413 18.8912 51.0477 18.3089 51.2803 17.7729C51.513 17.2369 51.8657 16.7616 52.3113 16.3836C53.3176 15.5929 54.5756 15.1921 55.8539 15.255H58.1111C58.2441 15.265 58.3777 15.2465 58.503 15.2009C58.6283 15.1553 58.7424 15.0836 58.8379 14.9905C58.9333 14.8974 59.0079 14.7851 59.0567 14.661C59.1054 14.5368 59.1272 14.4038 59.1206 14.2706C59.13 14.0097 59.0781 13.7502 58.9692 13.5128C58.8604 13.2755 58.6975 13.0669 58.4936 12.9037C57.9877 12.5349 57.3693 12.3531 56.7443 12.3896C56.0874 12.3554 55.4434 12.5805 54.951 13.0166C54.7396 13.2093 54.5686 13.4422 54.4481 13.7016C54.3275 13.961 54.2598 14.2418 54.2488 14.5277H50.9382C50.9862 13.6505 51.2723 12.8029 51.7658 12.0761C52.2866 11.3199 53.0013 10.7178 53.8349 10.333C54.8194 9.8906 55.8911 9.67626 56.97 9.706C58.003 9.69138 59.0265 9.9055 59.9671 10.333C60.7988 10.7155 61.51 11.3183 62.0237 12.0761ZM59.1206 17.6126H56.4308C55.9268 17.5882 55.4328 17.7588 55.0513 18.0891C54.8753 18.2457 54.7361 18.4394 54.644 18.6562C54.5518 18.8731 54.5089 19.1077 54.5184 19.3431C54.513 19.5485 54.5555 19.7523 54.6426 19.9384C54.7296 20.1245 54.8589 20.2878 55.02 20.4153C55.3774 20.6944 55.8207 20.8407 56.274 20.8291C56.6625 20.85 57.0507 20.7843 57.4107 20.6368C57.7707 20.4894 58.0935 20.2638 58.3557 19.9764C58.8756 19.3738 59.1468 18.5959 59.1144 17.8007L59.1206 17.6126ZM74.6892 10.3644C73.9039 9.91373 73.0113 9.68406 72.106 9.69973C71.2617 9.68371 70.4257 9.86853 69.6669 10.239C68.9871 10.5784 68.4223 11.1105 68.0429 11.7689V9.88783H64.3311V23.2933H68.0429V15.9635C68.0133 15.1778 68.2898 14.4113 68.8142 13.8254C69.0666 13.5507 69.3755 13.3339 69.7197 13.1899C70.0639 13.046 70.4352 12.9783 70.8081 12.9915C71.16 12.9749 71.5113 13.0366 71.8366 13.1722C72.1618 13.3077 72.453 13.5137 72.6891 13.7753C73.1595 14.3321 73.3995 15.0476 73.36 15.7754V23.2995H77.0719V14.9541C77.0881 14.0054 76.8729 13.0671 76.4449 12.2203C76.0503 11.4457 75.4407 10.8013 74.6892 10.3644ZM118.875 12.0761C119.385 12.8513 119.649 13.7627 119.633 14.6907V23.2933H115.997V21.4122C115.74 22.0637 115.254 22.5989 114.63 22.9171C113.907 23.2837 113.11 23.4789 112.3 23.4876C111.49 23.4963 110.689 23.3183 109.958 22.9672C109.315 22.6444 108.776 22.1467 108.403 21.5314C108.029 20.9115 107.836 20.199 107.845 19.4748C107.817 18.8912 107.924 18.3089 108.156 17.7729C108.389 17.2369 108.742 16.7616 109.187 16.3836C110.194 15.5939 111.452 15.1932 112.73 15.255H114.987C115.119 15.2668 115.252 15.2502 115.376 15.2065C115.501 15.1627 115.615 15.0927 115.711 15.0013C115.807 14.9099 115.881 14.799 115.931 14.6763C115.98 14.5535 116.002 14.4216 115.997 14.2894C116.005 14.0286 115.953 13.7694 115.844 13.5322C115.735 13.2951 115.573 13.0864 115.37 12.9225C114.862 12.5528 114.241 12.371 113.614 12.4084C112.957 12.3742 112.313 12.5994 111.821 13.0354C111.396 13.4268 111.144 13.9699 111.118 14.5465H107.827C107.87 13.6693 108.154 12.8209 108.648 12.0949C109.17 11.337 109.887 10.7347 110.723 10.3518C111.698 9.91382 112.759 9.69958 113.827 9.72481C114.86 9.70936 115.884 9.92352 116.824 10.3518C117.65 10.7314 118.359 11.3271 118.875 12.0761ZM115.997 17.6126H113.288C112.784 17.5908 112.291 17.7611 111.908 18.0891C111.733 18.2465 111.595 18.4403 111.503 18.657C111.411 18.8737 111.367 19.1078 111.375 19.3431C111.37 19.5492 111.413 19.7537 111.501 19.94C111.589 20.1263 111.72 20.2891 111.883 20.4153C112.24 20.6963 112.684 20.8428 113.137 20.8291C113.527 20.8492 113.916 20.7831 114.277 20.6357C114.637 20.4884 114.961 20.2632 115.225 19.9764C115.743 19.3728 116.012 18.5951 115.978 17.8007L115.997 17.6126ZM126.198 10.4145C125.602 10.8484 125.146 11.448 124.888 12.1388V9.91291H121.138V23.2933H124.856V16.7849C124.803 15.8129 125.032 14.8462 125.515 14.001C125.728 13.6719 126.025 13.4052 126.376 13.2279C126.726 13.0506 127.117 12.9691 127.508 12.9915H129.715V9.91291H128.198C127.487 9.88219 126.782 10.0563 126.167 10.4145H126.198ZM88.3204 4.09427H92.0072V23.2933H88.3204V21.8323C87.924 22.3774 87.3924 22.8096 86.7779 23.0864C86.1109 23.3903 85.3854 23.5444 84.6524 23.5378C83.4712 23.5669 82.3046 23.272 81.2791 22.6851C80.3253 22.1166 79.5632 21.2759 79.0908 20.2711C78.5671 19.1315 78.3077 17.8883 78.3322 16.6344C78.3071 15.3805 78.5665 14.1371 79.0908 12.9978C79.5601 11.9932 80.3174 11.1508 81.2666 10.5775C82.2803 9.99621 83.4339 9.70348 84.6022 9.73108C85.3508 9.71682 86.0934 9.86663 86.7779 10.17C87.3797 10.4327 87.9089 10.8372 88.3204 11.3488V4.09427ZM88.5273 16.6344C88.5782 15.6494 88.2633 14.6803 87.6432 13.9132C87.3374 13.5903 86.9689 13.3331 86.5603 13.1573C86.1518 12.9815 85.7116 12.8909 85.2669 12.8909C84.8221 12.8909 84.382 12.9815 83.9734 13.1573C83.5648 13.3331 83.1964 13.5903 82.8905 13.9132C82.266 14.6782 81.9486 15.6483 82.0002 16.6344C81.9536 17.6144 82.2757 18.5763 82.903 19.3306C83.2057 19.6535 83.5713 19.9108 83.9773 20.0868C84.3834 20.2627 84.8212 20.3535 85.2637 20.3535C85.7063 20.3535 86.1441 20.2627 86.5501 20.0868C86.9562 19.9108 87.3218 19.6535 87.6244 19.3306C88.2593 18.5682 88.5819 17.5937 88.5273 16.6031V16.6344ZM14.2206 15.5372C14.5852 15.5372 14.9416 15.4291 15.2447 15.2265C15.5479 15.0239 15.7841 14.736 15.9237 14.3992C16.0632 14.0624 16.0997 13.6917 16.0286 13.3341C15.9574 12.9766 15.7819 12.6481 15.5241 12.3903C15.2662 12.1325 14.9378 11.9569 14.5802 11.8858C14.2226 11.8147 13.852 11.8512 13.5151 11.9907C13.1783 12.1302 12.8904 12.3665 12.6878 12.6696C12.4853 12.9728 12.3772 13.3292 12.3772 13.6938C12.3763 13.9361 12.4235 14.1762 12.5158 14.4002C12.6081 14.6242 12.7439 14.8278 12.9152 14.9991C13.0866 15.1704 13.2901 15.3062 13.5141 15.3985C13.7382 15.4909 13.9783 15.538 14.2206 15.5372ZM28.0147 11.9507V24.0833C28.0181 25.1155 27.6121 26.1069 26.8858 26.8403C26.1594 27.5737 25.172 27.9892 24.1398 27.9958C21.273 28.0513 18.4223 27.5531 15.7442 26.5286C15.6986 26.509 15.6592 26.4774 15.6301 26.4372C15.6009 26.397 15.5832 26.3497 15.5787 26.3003C15.5742 26.2508 15.5831 26.2011 15.6045 26.1563C15.6259 26.1116 15.659 26.0734 15.7003 26.0458L17.4747 24.8733C17.5216 24.8431 17.5745 24.8236 17.6298 24.816C17.685 24.8084 17.7412 24.813 17.7945 24.8294C19.8523 25.4449 21.9923 25.741 24.1398 25.7072C24.5684 25.7039 24.9782 25.5314 25.28 25.2272C25.5819 24.923 25.7513 24.5118 25.7512 24.0833V11.9507C25.7475 11.708 25.6892 11.4693 25.5807 11.2522C25.4721 11.0351 25.3161 10.8453 25.1242 10.6967L15.0482 2.63962C14.7562 2.42035 14.4008 2.30181 14.0356 2.30181C13.6704 2.30181 13.315 2.42035 13.023 2.63962L2.90307 10.659C2.71251 10.8089 2.55747 10.999 2.44907 11.2158C2.34066 11.4326 2.28158 11.6707 2.27606 11.9131V24.0833C2.27606 24.514 2.44716 24.927 2.75171 25.2316C3.05626 25.5361 3.46931 25.7072 3.90001 25.7072C6.61259 25.7687 9.30862 25.2692 11.8191 24.24C10.3163 23.0385 9.10632 21.511 8.28077 19.773C7.45521 18.0349 7.03567 16.132 7.05386 14.2079C7.05386 9.74989 10.5714 7.41742 14.0513 7.41742C17.5312 7.41742 20.9923 9.74989 20.9923 14.2079C20.9966 15.7408 20.7313 17.2626 20.2085 18.7036C19.4849 20.6842 18.2677 22.4474 16.6722 23.8262C14.9551 25.2753 12.9633 26.3629 10.8159 27.024C8.57706 27.6828 6.25245 28.004 3.91882 27.977C2.88432 27.9754 1.89229 27.5654 1.15845 26.8363C0.424601 26.1071 0.00828275 25.1178 2.12419e-05 24.0833V11.9507C-0.00192317 11.3615 0.129645 10.7796 0.384845 10.2485C0.640045 9.7175 1.01224 9.25119 1.47349 8.88462L11.5809 0.846372C12.2757 0.298158 13.1349 0 14.0199 0C14.905 0 15.7642 0.298158 16.459 0.846372L26.5664 8.88462C27.0295 9.24993 27.4033 9.71584 27.6597 10.2471C27.9161 10.7783 28.0482 11.3608 28.0461 11.9507H28.0147ZM14.0199 23.0237C15.4747 22.0712 16.6662 20.7679 17.4848 19.2338C18.3033 17.6997 18.7225 15.9842 18.7037 14.2455C18.7296 13.6137 18.616 12.984 18.3711 12.401C18.1262 11.818 17.756 11.296 17.2866 10.8722C16.3785 10.1202 15.2302 9.71961 14.0513 9.74362C11.7815 9.74362 9.34244 11.1481 9.34244 14.2455C9.32237 15.9838 9.74034 17.6991 10.5578 19.2332C11.3753 20.7673 12.5659 22.0709 14.0199 23.0237Z" fill="white"/>
</svg>
