<svg width="28" height="24" viewBox="0 0 28 24" fill="none" xmlns="http://www.w3.org/2000/svg">
<path d="M26 12.2933C26 4.97333 20.32 0 14 0C7.74666 0 1.99999 4.86667 1.99999 12.3733C1.19999 12.8267 0.666656 13.68 0.666656 14.6667V17.3333C0.666656 18.8 1.86666 20 3.33332 20H4.66666V11.8667C4.66666 6.70667 8.83999 2.53333 14 2.53333C19.16 2.53333 23.3333 6.70667 23.3333 11.8667V21.3333H12.6667V24H23.3333C24.8 24 26 22.8 26 21.3333V19.7067C26.7867 19.2933 27.3333 18.48 27.3333 17.52V14.4533C27.3333 13.52 26.7867 12.7067 26 12.2933Z" fill="#3B7E62"/>
<path d="M9.99999 14.6667C10.7364 14.6667 11.3333 14.0697 11.3333 13.3333C11.3333 12.597 10.7364 12 9.99999 12C9.26361 12 8.66666 12.597 8.66666 13.3333C8.66666 14.0697 9.26361 14.6667 9.99999 14.6667Z" fill="#3B7E62"/>
<path d="M18 14.6667C18.7364 14.6667 19.3333 14.0697 19.3333 13.3333C19.3333 12.597 18.7364 12 18 12C17.2636 12 16.6667 12.597 16.6667 13.3333C16.6667 14.0697 17.2636 14.6667 18 14.6667Z" fill="#3B7E62"/>
<path d="M22 10.7067C21.36 6.90667 18.0533 4 14.0666 4C10.0266 4 5.67997 7.34667 6.02664 12.6C9.31997 11.2533 11.8 8.32 12.5066 4.74667C14.2533 8.25333 17.84 10.6667 22 10.7067Z" fill="#3B7E62"/>
</svg>
